<svg width="119" height="106" viewBox="0 0 119 106" fill="none" xmlns="http://www.w3.org/2000/svg">
<path d="M0.409408 69.2666C5.74011 61.248 31.5082 67.2259 40.5321 83.9678C51.8119 104.895 44.8342 110.678 31.0357 100.425C15.7692 89.0819 9.64025 64.7344 13.7901 57.0709C17.1098 50.9399 26.8998 48.2429 37.7672 55.2795C51.3514 64.0753 69.2151 81.2313 65.4592 86.8838C61.7033 92.5362 46.1345 88.893 35.8579 71.5096C25.5813 54.1262 29.3547 41.4326 34.4693 38.2229C38.1987 35.8825 51.5742 33.7783 67.773 49.1077C83.9718 64.4371 83.4655 70.472 81.2727 72.4706C79.7991 73.8138 69.3215 78.9047 56.1104 61.9667C42.8993 45.0287 41.7678 31.5707 47.2417 26.5816C50.517 23.5963 67.4943 17.0389 85.3046 35.3579C99.5527 50.0131 100.284 56.8523 95.8698 59.1662C93.9256 60.1853 81.2613 59.9972 70.2059 46.8903C56.3866 30.5067 57.8818 12.0156 67.9209 7.73364C73.2707 5.4518 93.061 5.99666 109.602 26.5875C126.142 47.1784 117.26 59.4263 103.488 45.5347C102.206 44.2417 82.813 25.5019 78.1223 14.0396C74.0987 4.20755 75.2398 -0.0474697 78.1538 0.635902" stroke="#FF7A24" stroke-width="0.672289"/>
</svg>
