<svg width="21" height="21" viewBox="0 0 21 21" fill="none" xmlns="http://www.w3.org/2000/svg">
<g clip-path="url(#clip0_402_236)">
<path d="M10.4867 0.931641C5.20445 0.931641 0.90625 5.22865 0.90625 10.5115C0.90625 15.7943 5.20445 20.0913 10.4867 20.0913C15.7689 20.0913 20.0671 15.7943 20.0671 10.5115C20.0671 5.22865 15.7689 0.931641 10.4867 0.931641ZM10.4867 19.4532C5.55636 19.4532 1.54554 15.4418 1.54554 10.5115C1.54554 5.58115 5.55636 1.56974 10.4867 1.56974C15.417 1.56974 19.4278 5.58115 19.4278 10.5115C19.4278 15.4418 15.417 19.4532 10.4867 19.4532Z" fill="white"/>
<path d="M12.5769 5.13517H10.9829C8.95268 5.11486 8.69337 6.37134 8.69337 7.73118V8.71999H7.79717C7.75666 8.71458 7.71545 8.71858 7.67674 8.73168C7.63803 8.74478 7.60286 8.76663 7.57397 8.79552C7.54507 8.82442 7.52322 8.85959 7.51012 8.8983C7.49702 8.93701 7.49302 8.97822 7.49843 9.01873V10.8111C7.49302 10.8516 7.49702 10.8929 7.51012 10.9316C7.52322 10.9703 7.54507 11.0054 7.57397 11.0343C7.60286 11.0632 7.63803 11.0851 7.67674 11.0982C7.71545 11.1113 7.75666 11.1153 7.79717 11.1099H8.69337V15.5909C8.6884 15.6315 8.69276 15.6727 8.70613 15.7113C8.7195 15.7499 8.74152 15.785 8.77052 15.8138C8.79952 15.8426 8.83472 15.8645 8.87343 15.8776C8.91215 15.8907 8.95335 15.8949 8.9939 15.8896H10.8192C10.9954 15.9099 11.1382 15.7672 11.0821 15.5909L11.0833 11.1099H12.5769C12.6174 11.1153 12.6586 11.1113 12.6974 11.0982C12.7361 11.0851 12.7712 11.0632 12.8001 11.0343C12.829 11.0054 12.8509 10.9703 12.864 10.9316C12.8771 10.8929 12.8811 10.8516 12.8757 10.8111V9.01873C12.8811 8.97822 12.8771 8.93701 12.864 8.8983C12.8509 8.85959 12.829 8.82442 12.8001 8.79552C12.7712 8.76663 12.7361 8.74478 12.6974 8.73168C12.6586 8.71858 12.6174 8.71458 12.5769 8.71999H11.0815L11.0833 7.82379C11.1412 7.442 11.1412 7.50414 11.4955 7.52505H12.5644C12.6474 7.50653 12.7359 7.51669 12.798 7.45634C12.8601 7.396 12.896 7.31355 12.8751 7.22632V5.43391C12.8806 5.39343 12.8767 5.35223 12.8637 5.31351C12.8506 5.2748 12.8288 5.23961 12.8 5.2107C12.7711 5.18179 12.736 5.15993 12.6973 5.14683C12.6586 5.13372 12.6174 5.12974 12.5769 5.13517ZM12.2573 6.89412L11.5081 6.86544C10.5802 6.86544 10.5025 7.36911 10.5025 7.88473L10.5001 9.01753C10.5 9.05948 10.5082 9.10103 10.5242 9.13981C10.5402 9.17859 10.5637 9.21383 10.5934 9.24352C10.623 9.27321 10.6582 9.29676 10.6969 9.31283C10.7357 9.32891 10.7772 9.33718 10.8192 9.33718H12.2782V10.4915H10.8204C10.7357 10.4915 10.6545 10.5251 10.5946 10.5849C10.5346 10.6447 10.5009 10.7259 10.5007 10.8105L10.5001 15.2922H9.29084V10.8111C9.29084 10.6349 9.17075 10.4921 8.9939 10.4921H8.0959V9.33778H8.9939C9.03582 9.33784 9.07735 9.32964 9.1161 9.31365C9.15485 9.29765 9.19007 9.27418 9.21975 9.24457C9.27949 9.18423 9.29025 9.10297 9.29025 9.01813V7.73058C9.29025 6.39105 9.5609 5.75295 10.9823 5.75295H12.2567V6.89412H12.2573Z" fill="white"/>
</g>
<defs>
<clipPath id="clip0_402_236">
<rect width="19.119" height="19.119" fill="white" transform="translate(0.929688 0.952637)"/>
</clipPath>
</defs>
</svg>
