<svg width="20" height="21" viewBox="0 0 20 21" fill="none" xmlns="http://www.w3.org/2000/svg">
<g clip-path="url(#clip0_402_248)">
<path d="M12.103 8.09375C11.698 8.09375 11.398 8.19592 11.1632 8.32497C11.1256 8.19114 11.0019 8.09315 10.8561 8.12243H9.07327C8.89702 8.09315 8.75422 8.23595 8.80859 8.42116V14.9933C8.75422 15.1606 8.89702 15.304 9.07327 15.2921H10.8561C11.0324 15.304 11.1752 15.1606 11.1752 14.9844L11.1746 11.0124C11.174 11.0106 11.1674 10.8206 11.2875 10.6898C11.3837 10.5858 11.5492 10.5326 11.778 10.5326C12.1592 10.5326 12.3289 10.6886 12.3922 11.0375V14.9844C12.3295 15.1606 12.4723 15.304 12.6485 15.2921H14.5276C14.7038 15.304 14.8466 15.1606 14.7833 14.9844V10.9048C14.846 8.83043 13.3685 8.09375 12.103 8.09375ZM14.2079 14.6946H12.9676V11.0375C12.9676 10.3319 12.5117 9.89453 11.7786 9.89453C11.364 9.89453 11.0413 10.0164 10.8191 10.2566C10.5102 10.5912 10.5341 11.0154 10.6004 11.1098V14.6946H9.39232V8.73185H10.5371V8.9326C10.5366 8.9924 10.553 9.05112 10.5844 9.10201C10.6158 9.15291 10.661 9.19391 10.7146 9.2203C10.7683 9.2467 10.8283 9.25742 10.8878 9.25123C10.9473 9.24504 11.0038 9.2222 11.0509 9.18533L11.1345 9.1208C11.3765 8.93021 11.6269 8.73245 12.1036 8.73245C12.5972 8.73245 14.2085 8.88958 14.2085 10.9054V14.6946H14.2079Z" fill="white"/>
<path d="M7.01604 5.11475C6.34567 5.11475 5.80078 5.65964 5.80078 6.33C5.80078 7.00036 6.34567 7.54525 7.01604 7.54525C7.6864 7.54525 8.23129 7.00036 8.23129 6.33C8.23129 5.65964 7.6864 5.11475 7.01604 5.11475ZM7.01604 6.90716C6.69818 6.90716 6.43888 6.64785 6.43888 6.33C6.43888 6.01215 6.69818 5.75284 7.01604 5.75284C7.33389 5.75284 7.59319 6.01215 7.59319 6.33C7.59319 6.64785 7.33389 6.90716 7.01604 6.90716Z" fill="white"/>
<path d="M7.86874 8.09326H6.09545C5.9192 8.09326 5.7764 8.23606 5.82061 8.42127V14.9934C5.7764 15.1607 5.9192 15.3041 6.09545 15.2922H7.86874C8.045 15.3041 8.18779 15.1607 8.18779 14.9845V8.41231C8.18779 8.32769 8.15418 8.24654 8.09434 8.18671C8.03451 8.12688 7.95336 8.09326 7.86874 8.09326ZM7.61302 14.6947H6.4145V8.73196H7.61302V14.6947Z" fill="white"/>
<path d="M10.0017 0.931641C4.71888 0.931641 0.421875 5.22865 0.421875 10.5115C0.421875 15.7943 4.71888 20.0913 10.0017 20.0913C15.2845 20.0913 19.5816 15.7943 19.5816 10.5115C19.5816 5.22865 15.2845 0.931641 10.0017 0.931641ZM10.0017 19.4532C5.07139 19.4532 1.05997 15.4418 1.05997 10.5115C1.05997 5.58115 5.07139 1.56974 10.0017 1.56974C14.932 1.56974 18.9435 5.58115 18.9435 10.5115C18.9435 15.4418 14.932 19.4532 10.0017 19.4532Z" fill="white"/>
</g>
<defs>
<clipPath id="clip0_402_248">
<rect width="19.119" height="19.119" fill="white" transform="translate(0.441406 0.952637)"/>
</clipPath>
</defs>
</svg>
