<svg width="66" height="66" viewBox="0 0 66 66" fill="none" xmlns="http://www.w3.org/2000/svg">
<path d="M49.5007 49.5C50.5947 49.5 51.6439 49.0654 52.4175 48.2918C53.1911 47.5182 53.6257 46.469 53.6257 45.375V35.3017C53.6257 34.2077 53.1911 33.1585 52.4175 32.3849C51.6439 31.6113 50.5947 31.1768 49.5007 31.1768H43.7752C43.7752 29.7289 43.8618 28.2769 44.031 26.829C44.2867 25.2945 44.7157 23.9291 45.3097 22.737C45.9078 21.5408 46.6751 20.6044 47.6156 19.9196C48.552 19.1524 49.7441 18.7688 51.1961 18.7688V12.375C48.8077 12.375 46.7205 12.8865 44.9261 13.9095C43.1473 14.9221 41.618 16.3204 40.4505 18.0015C39.2787 19.8549 38.415 21.886 37.893 24.0157C37.367 26.366 37.1096 28.7684 37.1257 31.1768V45.375C37.1257 46.469 37.5603 47.5182 38.3339 48.2918C39.1075 49.0654 40.1567 49.5 41.2507 49.5H49.5007ZM24.7507 49.5C25.8447 49.5 26.8939 49.0654 27.6675 48.2918C28.4411 47.5182 28.8757 46.469 28.8757 45.375V35.3017C28.8757 34.2077 28.4411 33.1585 27.6675 32.3849C26.8939 31.6113 25.8447 31.1768 24.7507 31.1768H19.0252C19.0252 29.7289 19.1118 28.2769 19.281 26.829C19.5367 25.2945 19.9657 23.9291 20.5597 22.737C21.1578 21.5408 21.9251 20.6044 22.8656 19.9196C23.802 19.1524 24.9941 18.7688 26.4461 18.7688V12.375C24.0577 12.375 21.9705 12.8865 20.1761 13.9095C18.3973 14.9221 16.868 16.3204 15.7005 18.0015C14.5287 19.8549 13.665 21.886 13.143 24.0157C12.617 26.366 12.3596 28.7684 12.3757 31.1768V45.375C12.3757 46.469 12.8103 47.5182 13.5839 48.2918C14.3575 49.0654 15.4067 49.5 16.5007 49.5H24.7507Z" fill="#FF7500"/>
</svg>
