<svg width="21" height="21" viewBox="0 0 21 21" fill="none" xmlns="http://www.w3.org/2000/svg">
<g clip-path="url(#clip0_402_242)">
<path d="M10.5101 0.931641C5.22789 0.931641 0.929688 5.22865 0.929688 10.5115C0.929688 15.7943 5.22789 20.0913 10.5101 20.0913C15.7924 20.0913 20.0906 15.7943 20.0906 10.5115C20.0906 5.22865 15.7924 0.931641 10.5101 0.931641ZM10.5101 19.4532C5.5798 19.4532 1.56898 15.4418 1.56898 10.5115C1.56898 5.58115 5.5798 1.56974 10.5101 1.56974C15.4404 1.56974 19.4513 5.58115 19.4513 10.5115C19.4513 15.4418 15.4404 19.4532 10.5101 19.4532Z" fill="white"/>
<path d="M15.7632 7.5524C15.8295 7.42973 15.8841 7.30111 15.9263 7.16823C15.9459 7.10659 15.9463 7.04048 15.9275 6.97861C15.9087 6.91674 15.8715 6.86204 15.821 6.82171C15.7704 6.78139 15.7088 6.75735 15.6443 6.75276C15.5798 6.74817 15.5155 6.76325 15.4597 6.796C15.1536 6.97788 14.8222 7.11338 14.4763 7.1981C14.0564 6.81917 13.5111 6.6091 12.9456 6.6084C12.6383 6.60863 12.3342 6.67091 12.0516 6.7915C11.769 6.91209 11.5136 7.0885 11.3009 7.31016C11.0881 7.53182 10.9222 7.79417 10.8133 8.08147C10.7043 8.36878 10.6545 8.67513 10.6668 8.98215C9.32311 8.81299 8.0961 8.13305 7.24032 7.08339C7.20753 7.04362 7.16563 7.01236 7.11817 6.99225C7.07072 6.97214 7.01911 6.96379 6.96773 6.96789C6.91635 6.972 6.86673 6.98844 6.82306 7.01583C6.7794 7.04322 6.743 7.08074 6.71694 7.12521C6.52098 7.46154 6.41447 7.84247 6.40757 8.23167C6.40067 8.62086 6.4936 9.00533 6.67751 9.3484C6.6324 9.35601 6.58907 9.3718 6.54965 9.395C6.50134 9.4258 6.46157 9.46828 6.434 9.5185C6.40643 9.56873 6.39196 9.62509 6.39191 9.68238C6.39191 10.3605 6.69364 10.9831 7.17998 11.4061L7.15907 11.427C7.12235 11.4685 7.09709 11.5189 7.08577 11.5732C7.07446 11.6275 7.07748 11.6837 7.09454 11.7365C7.19595 12.0529 7.36528 12.3432 7.59068 12.5873C7.81608 12.8314 8.0921 13.0233 8.39941 13.1495C7.76824 13.4574 7.06189 13.5775 6.36443 13.4954C6.29274 13.4881 6.22064 13.5048 6.15945 13.5429C6.09825 13.5809 6.05141 13.6382 6.02626 13.7057C6.00211 13.7738 6.00166 13.848 6.02498 13.9163C6.04829 13.9846 6.09401 14.0431 6.15472 14.0822C7.10291 14.6907 8.20598 15.014 9.33266 15.0136C13.025 15.0136 15.2321 12.0143 15.2321 9.11479L15.2315 9.0168C15.5893 8.73743 15.9002 8.4026 16.1522 8.025C16.1904 7.96792 16.2091 7.90006 16.2057 7.83148C16.2023 7.7629 16.1769 7.69724 16.1333 7.64422C16.0896 7.5912 16.0301 7.55364 15.9634 7.5371C15.8968 7.52057 15.8266 7.52593 15.7632 7.5524ZM14.7206 8.60096C14.6773 8.63214 14.6424 8.67368 14.6193 8.72179C14.5961 8.76991 14.5854 8.82306 14.588 8.8764C14.5916 8.95526 14.5934 9.03532 14.5934 9.11419C14.5934 11.7 12.6259 14.3749 9.33326 14.3749C8.74601 14.3752 8.1629 14.2766 7.60836 14.0833C8.27251 13.9561 8.89641 13.6713 9.42766 13.2529C9.47937 13.2121 9.51723 13.1563 9.53606 13.0932C9.55488 13.0301 9.55376 12.9627 9.53283 12.9003C9.51191 12.8379 9.47221 12.7834 9.41916 12.7444C9.36612 12.7054 9.30231 12.6837 9.23647 12.6823C8.97886 12.6774 8.726 12.612 8.49831 12.4914C8.27061 12.3708 8.07444 12.1984 7.92562 11.988C8.07678 11.9779 8.22495 11.9528 8.36894 11.9139C8.43863 11.8953 8.49994 11.8536 8.54287 11.7956C8.5858 11.7376 8.60781 11.6668 8.60531 11.5947C8.60282 11.5226 8.57596 11.4535 8.52913 11.3986C8.48229 11.3437 8.41825 11.3064 8.34743 11.2926C8.05648 11.2334 7.78709 11.0962 7.56808 10.8957C7.34908 10.6952 7.1887 10.439 7.1041 10.1544C7.26303 10.1944 7.42614 10.2177 7.58924 10.2231C7.72965 10.2225 7.8599 10.1365 7.90351 10.0014C7.94713 9.8664 7.89575 9.71763 7.77685 9.63877C7.49572 9.45146 7.27927 9.18195 7.15704 8.86703C7.03482 8.55211 7.01278 8.20713 7.09394 7.87922C8.13177 8.9441 9.53315 9.57822 11.0181 9.6549C11.1233 9.6555 11.2153 9.61786 11.2792 9.54078C11.3431 9.46371 11.3676 9.36154 11.3449 9.26356C11.2632 8.91165 11.2998 8.54261 11.4489 8.21357C11.5981 7.88452 11.8515 7.61381 12.1701 7.44333C12.4886 7.27285 12.8544 7.21209 13.2109 7.27048C13.5675 7.32886 13.8948 7.50312 14.1423 7.7663C14.1794 7.80587 14.2259 7.83536 14.2776 7.85198C14.3292 7.8686 14.3842 7.8718 14.4374 7.86129C14.536 7.84158 14.6334 7.81887 14.7296 7.79258C14.6862 7.82505 14.6412 7.85516 14.5946 7.8828C14.5326 7.92075 14.4854 7.97868 14.4608 8.04704C14.4362 8.11539 14.4356 8.1901 14.4591 8.25884C14.4826 8.32759 14.5289 8.38627 14.5902 8.42522C14.6515 8.46416 14.7243 8.48105 14.7965 8.4731L14.9053 8.45936C14.8454 8.50869 14.7838 8.55591 14.7206 8.60096Z" fill="white"/>
</g>
<defs>
<clipPath id="clip0_402_242">
<rect width="19.119" height="19.119" fill="white" transform="translate(0.953125 0.952637)"/>
</clipPath>
</defs>
</svg>
