<svg width="84" height="18" viewBox="0 0 84 18" fill="none" xmlns="http://www.w3.org/2000/svg">
<path d="M0.48 17V16.088C0.784 15.912 1.104 15.76 1.44 15.632C1.792 15.504 2.128 15.424 2.448 15.392V1.808C2.128 1.744 1.792 1.656 1.44 1.544C1.088 1.416 0.768 1.272 0.48 1.112V0.199999H4.344C4.952 0.199999 5.528 0.175999 6.072 0.128C6.616 0.0799994 7.24 0.0559993 7.944 0.0559993C8.712 0.0559993 9.456 0.111999 10.176 0.223999C10.896 0.335999 11.536 0.535999 12.096 0.823999C12.656 1.112 13.104 1.52 13.44 2.048C13.776 2.56 13.944 3.224 13.944 4.04C13.944 4.552 13.848 5.032 13.656 5.48C13.48 5.912 13.224 6.296 12.888 6.632C12.568 6.968 12.184 7.248 11.736 7.472C11.304 7.696 10.832 7.856 10.32 7.952V8.048C10.832 8.112 11.344 8.232 11.856 8.408C12.384 8.584 12.856 8.84 13.272 9.176C13.688 9.512 14.024 9.936 14.28 10.448C14.552 10.944 14.688 11.536 14.688 12.224C14.688 13.088 14.496 13.832 14.112 14.456C13.728 15.08 13.208 15.592 12.552 15.992C11.912 16.392 11.176 16.688 10.344 16.88C9.512 17.056 8.648 17.144 7.752 17.144C7.416 17.144 7.048 17.136 6.648 17.12C6.248 17.104 5.848 17.088 5.448 17.072C5.048 17.056 4.656 17.04 4.272 17.024C3.904 17.008 3.592 17 3.336 17H0.48ZM7.728 15.584C8.736 15.584 9.528 15.288 10.104 14.696C10.68 14.088 10.968 13.288 10.968 12.296C10.968 11.688 10.872 11.192 10.68 10.808C10.488 10.408 10.224 10.096 9.888 9.872C9.552 9.632 9.152 9.472 8.688 9.392C8.224 9.296 7.72 9.248 7.176 9.248H5.904V15.416C6.128 15.464 6.36 15.504 6.6 15.536C6.856 15.568 7.232 15.584 7.728 15.584ZM6.672 7.688C6.944 7.688 7.216 7.68 7.488 7.664C7.76 7.632 8.016 7.6 8.256 7.568C8.88 7.312 9.384 6.92 9.768 6.392C10.152 5.848 10.344 5.232 10.344 4.544C10.344 3.536 10.08 2.8 9.552 2.336C9.024 1.856 8.344 1.616 7.512 1.616C7.16 1.616 6.856 1.624 6.6 1.64C6.344 1.656 6.112 1.68 5.904 1.712V7.688H6.672ZM22.5459 7.76C22.3539 7.856 22.1299 8.016 21.8739 8.24C21.6179 8.464 21.3859 8.832 21.1779 9.344V15.488C21.4979 15.52 21.8179 15.584 22.1379 15.68C22.4579 15.76 22.7779 15.888 23.0979 16.064V17H16.1379V16.064C16.4259 15.904 16.6979 15.784 16.9539 15.704C17.2099 15.624 17.4659 15.552 17.7219 15.488V6.704L16.1379 6.512V5.576C16.3939 5.464 16.7059 5.36 17.0739 5.264C17.4579 5.168 17.8499 5.088 18.2499 5.024C18.6499 4.944 19.0339 4.88 19.4019 4.832C19.7859 4.784 20.1059 4.744 20.3619 4.712H21.1779V7.904H21.2739C21.4019 7.552 21.5859 7.184 21.8259 6.8C22.0819 6.416 22.3779 6.064 22.7139 5.744C23.0499 5.424 23.4179 5.168 23.8179 4.976C24.2179 4.784 24.6339 4.696 25.0659 4.712C25.2419 4.936 25.3939 5.256 25.5219 5.672C25.6499 6.072 25.7539 6.456 25.8339 6.824V7.76H22.5459ZM37.2019 13.52C37.2019 13.872 37.2019 14.176 37.2019 14.432C37.2179 14.688 37.2419 14.96 37.2739 15.248L38.9299 15.488V16.328C38.7379 16.424 38.4739 16.52 38.1379 16.616C37.8179 16.712 37.4739 16.808 37.1059 16.904C36.7539 16.984 36.4019 17.048 36.0499 17.096C35.6979 17.16 35.3859 17.208 35.1139 17.24H34.2979C34.1379 16.872 34.0419 16.504 34.0099 16.136C33.9779 15.768 33.9539 15.32 33.9379 14.792H33.8179C33.7379 15.112 33.6019 15.424 33.4099 15.728C33.2179 16.016 32.9699 16.28 32.6659 16.52C32.3779 16.744 32.0339 16.928 31.6339 17.072C31.2339 17.216 30.7859 17.288 30.2899 17.288C29.7619 17.288 29.2739 17.208 28.8259 17.048C28.3779 16.888 27.9859 16.664 27.6499 16.376C27.3139 16.088 27.0499 15.744 26.8579 15.344C26.6659 14.928 26.5699 14.464 26.5699 13.952C26.5699 13.232 26.7059 12.64 26.9779 12.176C27.2499 11.712 27.6739 11.336 28.2499 11.048C28.8419 10.744 29.5939 10.52 30.5059 10.376C31.4339 10.232 32.5539 10.128 33.8659 10.064C33.9939 8.688 33.9379 7.68 33.6979 7.04C33.4579 6.4 32.9379 6.08 32.1379 6.08C31.6419 6.08 31.1859 6.16 30.7699 6.32L29.6419 9.2H28.5859C28.4579 9.008 28.3299 8.792 28.2019 8.552C28.0899 8.296 27.9779 8.032 27.8659 7.76C27.7699 7.472 27.6819 7.184 27.6019 6.896C27.5379 6.608 27.4899 6.328 27.4579 6.056C28.0659 5.64 28.8499 5.312 29.8099 5.072C30.7699 4.832 31.7859 4.712 32.8579 4.712C33.7699 4.712 34.5139 4.816 35.0899 5.024C35.6659 5.216 36.1139 5.488 36.4339 5.84C36.7699 6.176 37.0019 6.576 37.1299 7.04C37.2579 7.504 37.3219 8 37.3219 8.528C37.3219 9.488 37.2979 10.36 37.2499 11.144C37.2179 11.912 37.2019 12.704 37.2019 13.52ZM31.8019 15.368C32.1379 15.368 32.4259 15.304 32.6659 15.176C32.9059 15.048 33.1059 14.896 33.2659 14.72C33.4419 14.544 33.5699 14.352 33.6499 14.144C33.7459 13.936 33.8179 13.752 33.8659 13.592V11.192C33.1139 11.208 32.4979 11.256 32.0179 11.336C31.5379 11.416 31.1619 11.552 30.8899 11.744C30.6179 11.92 30.4259 12.152 30.3139 12.44C30.2179 12.712 30.1699 13.048 30.1699 13.448C30.1699 14.056 30.3139 14.528 30.6019 14.864C30.8899 15.2 31.2899 15.368 31.8019 15.368ZM52.8173 1.808C52.4333 1.728 52.0653 1.624 51.7133 1.496C51.3773 1.368 51.0733 1.24 50.8013 1.112V0.199999H56.8973V1.112C56.7053 1.24 56.4493 1.368 56.1293 1.496C55.8253 1.624 55.5053 1.728 55.1693 1.808L49.6493 17L47.2733 17.288L41.0813 1.808C40.7613 1.728 40.4413 1.632 40.1213 1.52C39.8013 1.392 39.5213 1.256 39.2812 1.112V0.199999H47.2733V1.112C47.0013 1.24 46.6973 1.368 46.3613 1.496C46.0253 1.624 45.6733 1.728 45.3053 1.808L48.6653 11.264L49.2173 13.52H49.2653L49.7933 11.216L52.8173 1.808Z" fill="#FF7A24"/>
<path d="M68.1863 13.52C68.1863 13.872 68.1863 14.176 68.1863 14.432C68.2023 14.688 68.2263 14.96 68.2583 15.248L69.9143 15.488V16.328C69.7223 16.424 69.4583 16.52 69.1223 16.616C68.8023 16.712 68.4583 16.808 68.0903 16.904C67.7383 16.984 67.3863 17.048 67.0343 17.096C66.6823 17.16 66.3703 17.208 66.0983 17.24H65.2823C65.1223 16.872 65.0263 16.504 64.9943 16.136C64.9623 15.768 64.9383 15.32 64.9223 14.792H64.8023C64.7223 15.112 64.5863 15.424 64.3943 15.728C64.2023 16.016 63.9543 16.28 63.6503 16.52C63.3623 16.744 63.0183 16.928 62.6183 17.072C62.2183 17.216 61.7703 17.288 61.2743 17.288C60.7463 17.288 60.2583 17.208 59.8103 17.048C59.3623 16.888 58.9703 16.664 58.6343 16.376C58.2983 16.088 58.0343 15.744 57.8423 15.344C57.6503 14.928 57.5543 14.464 57.5543 13.952C57.5543 13.232 57.6903 12.64 57.9623 12.176C58.2343 11.712 58.6583 11.336 59.2343 11.048C59.8263 10.744 60.5783 10.52 61.4903 10.376C62.4183 10.232 63.5383 10.128 64.8503 10.064C64.9783 8.688 64.9223 7.68 64.6823 7.04C64.4423 6.4 63.9223 6.08 63.1223 6.08C62.6263 6.08 62.1703 6.16 61.7543 6.32L60.6263 9.2H59.5703C59.4423 9.008 59.3143 8.792 59.1863 8.552C59.0743 8.296 58.9623 8.032 58.8503 7.76C58.7543 7.472 58.6663 7.184 58.5863 6.896C58.5222 6.608 58.4743 6.328 58.4423 6.056C59.0503 5.64 59.8343 5.312 60.7943 5.072C61.7543 4.832 62.7703 4.712 63.8423 4.712C64.7543 4.712 65.4983 4.816 66.0743 5.024C66.6503 5.216 67.0983 5.488 67.4183 5.84C67.7543 6.176 67.9863 6.576 68.1143 7.04C68.2423 7.504 68.3063 8 68.3063 8.528C68.3063 9.488 68.2823 10.36 68.2343 11.144C68.2023 11.912 68.1863 12.704 68.1863 13.52ZM62.7863 15.368C63.1223 15.368 63.4103 15.304 63.6503 15.176C63.8903 15.048 64.0903 14.896 64.2503 14.72C64.4263 14.544 64.5543 14.352 64.6343 14.144C64.7303 13.936 64.8023 13.752 64.8503 13.592V11.192C64.0983 11.208 63.4823 11.256 63.0023 11.336C62.5223 11.416 62.1463 11.552 61.8743 11.744C61.6023 11.92 61.4103 12.152 61.2983 12.44C61.2023 12.712 61.1543 13.048 61.1543 13.448C61.1543 14.056 61.2983 14.528 61.5863 14.864C61.8743 15.2 62.2743 15.368 62.7863 15.368ZM81.5456 13.52C81.5456 13.872 81.5456 14.176 81.5456 14.432C81.5616 14.688 81.5856 14.96 81.6176 15.248L83.2736 15.488V16.328C83.0816 16.424 82.8176 16.52 82.4816 16.616C82.1616 16.712 81.8176 16.808 81.4496 16.904C81.0976 16.984 80.7456 17.048 80.3936 17.096C80.0416 17.16 79.7296 17.208 79.4576 17.24H78.6416C78.4816 16.872 78.3856 16.504 78.3536 16.136C78.3216 15.768 78.2976 15.32 78.2816 14.792H78.1616C78.0816 15.112 77.9456 15.424 77.7536 15.728C77.5616 16.016 77.3136 16.28 77.0096 16.52C76.7216 16.744 76.3776 16.928 75.9776 17.072C75.5776 17.216 75.1296 17.288 74.6336 17.288C74.1056 17.288 73.6176 17.208 73.1696 17.048C72.7216 16.888 72.3296 16.664 71.9936 16.376C71.6576 16.088 71.3936 15.744 71.2016 15.344C71.0096 14.928 70.9136 14.464 70.9136 13.952C70.9136 13.232 71.0496 12.64 71.3216 12.176C71.5936 11.712 72.0176 11.336 72.5936 11.048C73.1856 10.744 73.9376 10.52 74.8496 10.376C75.7776 10.232 76.8976 10.128 78.2096 10.064C78.3376 8.688 78.2816 7.68 78.0416 7.04C77.8016 6.4 77.2816 6.08 76.4816 6.08C75.9856 6.08 75.5296 6.16 75.1136 6.32L73.9856 9.2H72.9296C72.8016 9.008 72.6736 8.792 72.5456 8.552C72.4336 8.296 72.3216 8.032 72.2096 7.76C72.1136 7.472 72.0256 7.184 71.9456 6.896C71.8816 6.608 71.8336 6.328 71.8016 6.056C72.4096 5.64 73.1936 5.312 74.1536 5.072C75.1136 4.832 76.1296 4.712 77.2016 4.712C78.1136 4.712 78.8576 4.816 79.4336 5.024C80.0096 5.216 80.4576 5.488 80.7776 5.84C81.1136 6.176 81.3456 6.576 81.4736 7.04C81.6016 7.504 81.6656 8 81.6656 8.528C81.6656 9.488 81.6416 10.36 81.5936 11.144C81.5616 11.912 81.5456 12.704 81.5456 13.52ZM76.1456 15.368C76.4816 15.368 76.7696 15.304 77.0096 15.176C77.2496 15.048 77.4496 14.896 77.6096 14.72C77.7856 14.544 77.9136 14.352 77.9936 14.144C78.0896 13.936 78.1616 13.752 78.2096 13.592V11.192C77.4576 11.208 76.8416 11.256 76.3616 11.336C75.8816 11.416 75.5056 11.552 75.2336 11.744C74.9616 11.92 74.7696 12.152 74.6576 12.44C74.5616 12.712 74.5136 13.048 74.5136 13.448C74.5136 14.056 74.6576 14.528 74.9456 14.864C75.2336 15.2 75.6336 15.368 76.1456 15.368Z" fill="#195755"/>
</svg>
